# xmcd
#
# Track frame offsets: 
#        150
#        17921
#        38075
#        53489
#        69307
#        88512
#        90010
#        101396
#        115711
#        129268
#        144633
#        159199
#
# Disc length: 2321 seconds
#
# Revision: 0
# Processed by: cddbd v1.5.2PL0 Copyright (c) Steve Scherf et al.
# Submitted via: ExactAudioCopy v1.3
#
DISCID=80090f0c
DTITLE=Robin Rogers - Crazy Cryin' Blues
DYEAR=2004
DGENRE=Modern Electric Blues
TTITLE0=Hesitation Blues
TTITLE1=Come On In This House
TTITLE2=It's A Blessing
TTITLE3=Travelin' Blues
TTITLE4=Hip Shakin' Mama
TTITLE5=Alma's Romance
TTITLE6=Wild About That Thing
TTITLE7=Crazy Cryin' Blues
TTITLE8=Me and My Chauffer Blues
TTITLE9=Black-Eyed Blues
TTITLE10=Conjur Man
TTITLE11=Yola My Blues Away
EXTD=
EXTT0=
EXTT1=
EXTT2=
EXTT3=
EXTT4=
EXTT5=
EXTT6=
EXTT7=
EXTT8=
EXTT9=
EXTT10=
EXTT11=
PLAYORDER=
